<svg width="128" height="128" viewBox="0 0 128 128" xmlns="http://www.w3.org/2000/svg">
  <defs>
    <linearGradient id="grad128" x1="0%" y1="0%" x2="100%" y2="100%">
      <stop offset="0%" style="stop-color:#0176d3;stop-opacity:1" />
      <stop offset="25%" style="stop-color:#0099e0;stop-opacity:1" />
      <stop offset="75%" style="stop-color:#0066cc;stop-opacity:1" />
      <stop offset="100%" style="stop-color:#014486;stop-opacity:1" />
    </linearGradient>
    <filter id="shadow128" x="-20%" y="-20%" width="140%" y="140%">
      <feDropShadow dx="3" dy="3" stdDeviation="4" flood-color="#000" flood-opacity="0.4"/>
    </filter>
    <radialGradient id="highlight" cx="30%" cy="30%" r="70%">
      <stop offset="0%" style="stop-color:#ffffff;stop-opacity:0.3" />
      <stop offset="100%" style="stop-color:#ffffff;stop-opacity:0" />
    </radialGradient>
  </defs>
  
  <!-- Background circle with shadow -->
  <circle cx="64" cy="64" r="60" fill="url(#grad128)" filter="url(#shadow128)"/>
  
  <!-- Highlight overlay -->
  <circle cx="64" cy="64" r="60" fill="url(#highlight)"/>
  
  <!-- AI Brain network -->
  <g fill="#fff" stroke="#fff">
    <!-- Central brain -->
    <circle cx="64" cy="50" r="16" fill="none" stroke="#fff" stroke-width="3"/>
    
    <!-- Inner brain details -->
    <circle cx="58" cy="45" r="3" fill="#fff" opacity="0.8"/>
    <circle cx="70" cy="45" r="3" fill="#fff" opacity="0.8"/>
    <circle cx="64" cy="55" r="2" fill="#fff" opacity="0.8"/>
    
    <!-- Major neural nodes -->
    <circle cx="32" cy="32" r="6"/>
    <circle cx="96" cy="32" r="6"/>
    <circle cx="20" cy="64" r="6"/>
    <circle cx="108" cy="64" r="6"/>
    <circle cx="32" cy="96" r="6"/>
    <circle cx="96" cy="96" r="6"/>
    <circle cx="64" cy="20" r="5"/>
    <circle cx="64" cy="108" r="5"/>
    
    <!-- Secondary nodes -->
    <circle cx="45" cy="25" r="4"/>
    <circle cx="83" cy="25" r="4"/>
    <circle cx="25" cy="45" r="4"/>
    <circle cx="103" cy="45" r="4"/>
    <circle cx="25" cy="83" r="4"/>
    <circle cx="103" cy="83" r="4"/>
    <circle cx="45" cy="103" r="4"/>
    <circle cx="83" cy="103" r="4"/>
    
    <!-- Primary connection lines -->
    <line x1="38" y1="38" x2="52" y2="44" stroke="#fff" stroke-width="2.5" opacity="0.9"/>
    <line x1="90" y1="38" x2="76" y2="44" stroke="#fff" stroke-width="2.5" opacity="0.9"/>
    <line x1="26" y1="58" x2="48" y2="52" stroke="#fff" stroke-width="2.5" opacity="0.9"/>
    <line x1="102" y1="58" x2="80" y2="52" stroke="#fff" stroke-width="2.5" opacity="0.9"/>
    <line x1="38" y1="90" x2="56" y2="66" stroke="#fff" stroke-width="2.5" opacity="0.9"/>
    <line x1="90" y1="90" x2="72" y2="66" stroke="#fff" stroke-width="2.5" opacity="0.9"/>
    <line x1="64" y1="25" x2="64" y2="34" stroke="#fff" stroke-width="2.5" opacity="0.9"/>
    <line x1="64" y1="103" x2="64" y2="66" stroke="#fff" stroke-width="2.5" opacity="0.9"/>
    
    <!-- Secondary connections -->
    <line x1="45" y1="29" x2="58" y2="40" stroke="#fff" stroke-width="1.5" opacity="0.7"/>
    <line x1="83" y1="29" x2="70" y2="40" stroke="#fff" stroke-width="1.5" opacity="0.7"/>
    <line x1="29" y1="45" x2="48" y2="48" stroke="#fff" stroke-width="1.5" opacity="0.7"/>
    <line x1="99" y1="45" x2="80" y2="48" stroke="#fff" stroke-width="1.5" opacity="0.7"/>
    <line x1="29" y1="83" x2="48" y2="60" stroke="#fff" stroke-width="1.5" opacity="0.7"/>
    <line x1="99" y1="83" x2="80" y2="60" stroke="#fff" stroke-width="1.5" opacity="0.7"/>
    <line x1="45" y1="99" x2="60" y2="66" stroke="#fff" stroke-width="1.5" opacity="0.7"/>
    <line x1="83" y1="99" x2="68" y2="66" stroke="#fff" stroke-width="1.5" opacity="0.7"/>
    
    <!-- Tertiary connections -->
    <line x1="32" y1="38" x2="32" y2="58" stroke="#fff" stroke-width="1" opacity="0.5"/>
    <line x1="96" y1="38" x2="96" y2="58" stroke="#fff" stroke-width="1" opacity="0.5"/>
    <line x1="38" y1="96" x2="58" y2="96" stroke="#fff" stroke-width="1" opacity="0.5"/>
    <line x1="90" y1="96" x2="70" y2="96" stroke="#fff" stroke-width="1" opacity="0.5"/>
  </g>
  
  <!-- Salesforce AI text -->
  <text x="64" y="120" text-anchor="middle" font-family="Arial, sans-serif" font-size="14" font-weight="bold" fill="#fff">SALESFORCE AI</text>
</svg>